<?xml version="1.0" encoding="UTF-8"?>
<svg id="Layer_2" data-name="Layer 2" xmlns="http://www.w3.org/2000/svg" viewBox="0 0 1030.54 473.38">
  <defs>
    <style>
      .cls-1 {
        fill: #f2f2f2;
      }

      .cls-2 {
        fill: #00b8c0;
      }
    </style>
  </defs>
  <g id="Layer_1-2" data-name="Layer 1">
    <g>
      <path class="cls-1" d="M341.3,293.94c1.98-23.03,35.29-52.85,64.59-58.95,14.86-3.09,19.87-11.63,17.97-27.67-2.4-20.22-3.31-40.65-5.13-64.48C298.04,284.6,165.47,403.89,0,473.38,171.7,334.22,343.65,195.68,469.43,0c.54,3.64.94,5.08.93,6.51-.65,69.05,2.01,138.18-4.79,207.06-.42,4.26.98,7.42,5.37,6.68,68.66-11.69,136.44-26.32,192.77-75.01,12.73-11.01,24.08-23.91,34.13-33.99-9.15,22.04-23.27,44.55-43.4,61.21-53.26,44.07-116.73,58.59-180.71,71.63-45.92,9.35-94.87,9.58-132.42,49.86Z"/>
      <path class="cls-2" d="M423.73,319.99c-66.44,19.32-104.48,56.61-76.45,137.24-43.67-11.18-59.26-74.93-30.63-121.42,25.56-41.5,66.11-53.46,107.61-64.13,62.4-16.05,127.04-22.58,186.32-52.11,43.36-21.6,75.07-56.05,98.19-100.66,1.54-2.98,3.58-5.66,5.62-8.84,13.62,25.47-43.85,112.56-95.23,143.42-49.97,30.01-105.51,42.39-161.39,54.79-3.89,30.98-7.54,61.24-20.11,88.96-9.98,22-20.52,43.71-40.92,56.7-30.93,19.7-52.15,3.73-52.82-39.51-.05-3.33.34-6.67.62-11.81,1.89,3.06,11.26,17.56,27.64,19.6,2.01.25,7.06.82,12.78-1.15,7.41-2.56,15.44-9.22,24.29-30.21,5.5-13.05,13.45-36.71,14.48-70.86Z"/>
      <path class="cls-1" d="M691.54,334.3c-12.19,2.52-25.53,5.28-38.88,8.04.05,1.04.1,2.09.15,3.13,4.71.58,9.43,1.15,14.14,1.73-.01.93-.02,1.86-.03,2.79-11.26,0-22.55.47-33.78-.26-3.81-.25-3.46-4.79-2.42-8.34,7.24-24.72,27.33-27.77,46.42-32.01,19.99-4.44,40.15-5.28,60.28-.66,13.71,3.15,28.24,6.66,29.85,25.12,1.77,20.22-7.54,35.29-24.91,42.36-12.27,5-25.43,7.81-38.4,10.31-13,2.51-26.25,3.42-38.12,4.88,21.36,10.4,43.96,21.08,66.29,32.39,14.45,7.31,7.76,20.28,7.46,33.84-29.61-16.14-57.46-31.31-84.37-45.98-14.81,9.44-12.84,34.54-35.11,40.55,5.22-19.52,15.38-31.81,23.67-45.74-2.6-1.4-5.17-2.78-12.21-6.57,23.43-20.19,50.77-33.94,59.97-65.58ZM676.15,378.34c24.48-6.05,49.04-9.28,70.98-22.46,4.34-2.6,8.6-6.28,8.16-12.22-.18-2.44-3.07-5.71-5.41-6.72-16.1-6.9-32.76-5.54-49.01-3.68-2.59,18.89-16.54,29.56-24.72,45.07Z"/>
      <path class="cls-1" d="M494.02,418.59c-4.32,2.24-6.75,3.51-9.32,4.85,10.22,10.7,74.25.28,86.47-13.94-7.04-11.79-18.2-15.67-29.98-18.51-7.39-1.78-15.05-2.96-21.98-6.04-8.41-3.73-20.85-4.56-21.7-17.04-1.07-15.64,2.86-31.19,16.44-39.99,26.08-16.89,54.68-19.44,84.12-14.69,3.89.63,8.61,1.82,9.02,7.14.53,6.85,0,14.58-6.03,18.2-10.16,6.11-21.03,10.82-32.28,16.46,3.54-8.89,11.7-11.15,17.83-16.07-12.34-8.56-66.31,5.52-73.03,18.8-2.78,5.48-.62,8.66,4.52,10.54,15.04,5.49,30.31,10.41,44.92,17.05,10.6,4.81,21.31,11.77,20.79,26.69-.57,16.05-10.3,25.99-23.18,31.37-24.78,10.35-50.57,13.03-76.76,7.88-6.79-1.34-16.62-2.39-14.92-13.19,1.99-12.6,9.52-20.84,25.08-19.51Z"/>
      <path class="cls-1" d="M869.99,319.98c-8.8,2.34-17.38,4.62-32.02,8.52,36.49-.22,42.89,9.46,33.27,41.76-7.17,24.08-18.23,45.8-38.01,60.37-14.34,10.57-30.48,20.87-47.3,8.02-17.02-13-17.65-34-12.45-53.26,10.75-39.82,36.3-66.25,70.95-82.13,14.58-6.68,22.08,2.69,25.57,16.72ZM814.37,352.1c-14.87,21.74-25.98,40.32-29,62.64-2.04,15.06,5.8,21.79,19.27,17.6,24.1-7.5,56.69-54.81,57.52-82.08.38-12.56-5.09-16.53-15.64-12.84-18.47,6.46-30.17,21.5-43.19,43.82,4.57-12.07,6.95-18.34,11.05-29.15Z"/>
    </g>
    <g>
      <path class="cls-1" d="M720.76,283.47c-1.71-.69-3.24-2.07-4.59-4.11-1.35-2.05-2.03-4.95-2.03-8.7,0-2.25.11-4.11.34-5.58.22-1.46.54-3.04.96-4.73.41-1.61.68-2.87.79-3.77.3-1.35.83-3.02,1.58-5.01.6-1.58.9-2.67.9-3.27,0-.45.09-.68.28-.68h.06l.06.06c.07,0,.11-.09.11-.28v-.34c-.04-.19-.06-.32-.06-.39s.36-1.18,1.07-3.32c.71-2.14,1.47-4.33,2.28-6.56.81-2.23,1.42-3.84,1.83-4.82.04-.04.21-.45.51-1.24,6.01-14.38,11.38-25.74,16.11-34.08.86-1.5,1.33-2.38,1.41-2.65,0-.23.07-.41.22-.56.41-.53,2.44-3.91,6.08-10.14,6.46-10.93,10.91-18.34,13.35-22.25.98-1.46,1.46-2.35,1.46-2.65,0-.04-.02-.06-.06-.06-.3,0-.68.32-1.13.96-.45.64-1.05,1.56-1.8,2.76-1.05,1.8-1.73,2.76-2.03,2.87l-.22.06s-.06-.02-.06-.06c0-.07.13-.28.39-.62.38-.45.56-.71.56-.79,0-.15,1.01-1.8,3.04-4.96-5.97.68-13.56,1.95-22.76,3.83-9.2,1.88-15.64,3.47-19.32,4.79-1.17.41-1.95.62-2.37.62-.26,0-.39-.07-.39-.23s.13-.43.39-.85c.11-.19.21-.34.28-.45h-.79c-.34,0-.56-.03-.68-.08-.11-.06-.17-.18-.17-.37,0-.11.06-.41.17-.9.49-2.14.77-4.39.84-6.76,0-.49.02-1.07.06-1.75,0-.9.02-1.44.06-1.61.04-.17.15-.33.34-.48.3-.19.58-.43.84-.73,1.46-1.65,4.49-3.24,9.07-4.76,4.58-1.52,10.55-2.78,17.91-3.77,7.36-.99,15.36-1.49,24-1.49,7.17,0,14.14.33,20.9.99,6.76.66,12.73,1.61,17.91,2.84,4.24.98,8.04,1.95,11.41,2.93,3.36.98,5.27,1.65,5.72,2.03.11.11.24.17.39.17.04,0,.09-.02.17-.06.04-.04.07-.06.11-.06.08,0,.15.09.23.28.15.34.32.51.51.51.04,0,.09-.02.17-.06.07-.04.13-.06.17-.06.19,0,.36.15.51.45.15.26.28.39.39.39l.06-.06h.11c.38,0,1.34.36,2.9,1.07,1.56.71,2.34,1.16,2.34,1.35,0,.15.38.43,1.13.84.68.34,1.19.94,1.55,1.8.36.86.54,1.84.54,2.93,0,2.52-1,4.94-2.99,7.27-.23.3-.34.47-.34.51,0,.08-.19.11-.56.11-.41,0-.62-.07-.62-.23,0-.04.09-.19.28-.45,1.13-1.54,1.69-3.04,1.69-4.51,0-.86-.79-1.8-2.37-2.82-1.58-1.01-3.12-1.54-4.62-1.58-.49,0-.81-.11-.96-.34-.04-.04-.08-.06-.11-.06s-.13.02-.28.06l-.17.06c-.08,0-.11-.02-.11-.06s.04-.11.11-.23c.08-.19.11-.32.11-.39,0-.04-.04-.06-.11-.06l-.17.06c-.34.19-.7.28-1.07.28-.9,0-2.2-.19-3.89-.56-2.93-.64-6.5-1.18-10.7-1.63-4.21-.45-10.63-.68-19.26-.68-2.85,0-4.71.03-5.58.08-.86.06-1.3.16-1.3.31v.23c0,.23-.17.56-.51,1.01-.3.41-.45.73-.45.96v.17c0,.53-.76,2.1-2.28,4.73-1.52,2.63-2.41,3.94-2.68,3.94-.04,0-.08-.02-.11-.06-.08-.04-.13-.06-.17-.06l.06.11s.06.11.06.23c0,.53-.94,2.18-2.82,4.96-.64.9-.96,1.39-.96,1.46,0,.34-.84,1.63-2.53,3.89-.53.68-.79,1.03-.79,1.07-.34.75-1.89,3.46-4.65,8.11-2.76,4.66-4.31,6.98-4.65,6.98-.15,0-.23.09-.23.28v.06c0,.26-.57,1.35-1.72,3.27-1.15,1.92-1.81,2.87-2,2.87l-.06-.06c-.11,0-.17.09-.17.28,0,.34-.36,1.1-1.07,2.28-.71,1.18-1.16,1.77-1.35,1.77h-.06s-.04-.06-.11-.06c-.11,0-.26.15-.45.45,0,.04.02.06.06.06s.11-.02.23-.06c.11-.07.19-.11.23-.11.07,0,.11.04.11.11,0,.19-.19.55-.56,1.1-.38.54-.64.82-.79.82h-.11l-.06-.06v.11s.06.09.06.17c0,.45-.36,1.24-1.07,2.37-.71,1.13-1.22,1.69-1.52,1.69-.04,0-.09-.04-.17-.11h-.06l.06.11s.06.11.06.23c0,.34-.82,2.01-2.45,5.01-1.63,3-2.62,4.64-2.96,4.9-.15.15-.22.32-.22.51-.15.45-1.6,3.15-4.34,8.11-5.52,10.14-10.13,19.56-13.83,28.25-3.7,8.69-5.55,14.5-5.55,17.43,0,.41-.11.66-.34.73-.11,0-.19-.15-.23-.45-.08-.26-.17-.39-.28-.39-.04,0-.09.02-.17.06l-.11.06s-.06-.02-.06-.06.09-.19.28-.45c.11-.19.17-.3.17-.34v-.06l-.11.06c-.08.08-.17.11-.28.11-.23,0-.34-.09-.34-.28s.11-.3.34-.34c.26-.11.41-.66.45-1.63.04-.45.08-.75.11-.9.41-1.24.62-2.14.62-2.7,0-.26-.06-.39-.17-.39h-.06l-.11.06c-.15,0-.26-.23-.34-.68-.11-.64-.28-1-.51-1.07-.23,0-.34.25-.34.73,0,.68.24,1.18.73,1.52l.06.06-.34-.06c-.26-.07-.45-.11-.56-.11-.15,0-.23.06-.23.17,0,.08.02.17.06.28.04.11.06.19.06.23h-.06l-.23-.28c-.41-.6-.73-.9-.96-.9-.08,0-.15.02-.23.06l-.06.06-.06-.06.11-.06c.38-.45.56-.92.56-1.41,0-.23.1-.41.31-.56.21-.15.44-.23.7-.23.34,0,.62.13.84.39.08.08.13.11.17.11.23,0,.38-.36.45-1.07,0-.3-.11-.56-.34-.79-.23-.23-.43-.34-.62-.34s-.28.13-.28.39l.06.51c0,.34-.09.51-.28.51-.11,0-.17-.09-.17-.28,0-.07.02-.19.06-.34.04-.11.06-.19.06-.22,0-.08-.02-.11-.06-.11s-.09.02-.17.06-.13.06-.17.06c-.08,0-.11-.09-.11-.28,0-.11.02-.3.06-.56.04-.22.06-.39.06-.51,0-.23-.06-.4-.17-.54-.11-.13-.21-.2-.28-.2s-.11.02-.11.06.02.09.06.17c.08.19.11.34.11.45,0,.34-.11.77-.34,1.29-.19.41-.28.75-.28,1.01,0,.08.02.15.06.23l.06.23-.06.11-.11-.06s-.09-.06-.17-.06c-.23,0-.45.09-.68.28-.22.19-.34.38-.34.56,0,.08.09.11.28.11h.23s.07-.06.11-.06c.15,0,.23.17.23.51,0,.38-.03.66-.08.84-.06.19-.2.28-.42.28h-.34c-.19,0-.28.06-.28.17,0,.22.26.34.79.34.41,0,.68-.09.79-.28.08-.04.13-.06.17-.06.11,0,.26.2.45.59.19.39.28.63.28.7l-.73-.9c-.11.08-.26.19-.45.34-.56.49-.85.81-.85.96,0,.04.06.06.17.06.23.08.34.19.34.34s-.06.22-.17.22l-.11-.06c-.08-.04-.13-.06-.17-.06-.15,0-.27.06-.37.17s-.14.21-.14.28l.06.06s.09-.02.17-.06c.11-.08.19-.11.22-.11.19,0,.28.19.28.56,0,.08-.02.17-.06.28v.17c0,.11.06.17.17.17.23,0,.47-.13.73-.39s.39-.49.39-.68c0-.11-.04-.17-.11-.17-.04,0-.09.02-.17.06-.11.08-.19.11-.22.11-.11,0-.17-.08-.17-.23,0-.23.17-.41.51-.56.07,0,.13.08.17.23.04.15.09.22.17.22h.11c.11,0,.17.26.17.79,0,.94-.17,1.93-.51,2.99-.08.26-.11.43-.11.51s.02.11.06.11.06.02.06.06c0,.08-.21.26-.62.56-.11.11-.21.19-.28.23.04.08.08.17.11.28.26.64.47,1.09.62,1.35.15.26.34.39.56.39h.23c.07-.04.13-.06.17-.06.15,0,.3.08.45.22.08.08.15.11.23.11.11,0,.24-.04.39-.11.07-.07.15-.11.22-.11s.11.13.11.39v.28c0,.53.11.79.34.79h.11c.23,0,.58.3,1.07.9.34.45.56.68.68.68v-.06c0-.07-.22-.49-.68-1.24-.9-1.46-1.35-2.37-1.35-2.7,0-.22.09-.34.28-.34s.36.32.51.96c.15.79.79,1.66,1.92,2.62,1.13.96,2.03,1.44,2.7,1.44.23,0,.45-.13.68-.39.23-.26.47-.39.73-.39.15,0,.23.08.23.22,0,.38-.25.71-.76,1.01s-1.1.45-1.77.45c-1.46,0-3.05-.35-4.76-1.04Z"/>
      <path class="cls-1" d="M742.14,269.27c-.56-.62-.84-1.94-.84-3.97,0-1.58.27-3.35.82-5.32.54-1.97.93-2.96,1.16-2.96h.11l.06.06c.08,0,.09-.02.06-.06,0-.04-.02-.09-.06-.17-.04-.11-.06-.21-.06-.28,0-.68.53-2.37,1.58-5.07,1.05-2.7,2.16-5.27,3.32-7.69,1.16-2.42,1.92-3.63,2.25-3.63.19,0,.28-.02.28-.06l-.11-.06c-.23-.11-.34-.23-.34-.34,0-.23.08-.46.25-.7s.33-.37.48-.37l.11.11c.08,0,.11-.09.11-.28v-.17c-.04-.08-.06-.15-.06-.23,0-.3.12-.62.37-.96.24-.34.4-.51.48-.51l.06.06-.06.11c-.08.3-.11.51-.11.62,0,.08.02.11.06.11.19,0,.43-.39.73-1.18-.08,0-.19.04-.34.11h-.06c-.08,0-.11-.06-.11-.17,0-.38.24-.91.73-1.61.49-.69,1.18-1.59,2.08-2.68,1.09-1.39,1.63-2.18,1.63-2.37l-.06-.06c-.08,0-.3.28-.68.84-.41.64-.68.96-.79.96-.04,0-.06-.04-.06-.11,0-.41.6-1.41,1.8-2.99.75-1.05,1.22-1.76,1.41-2.14.68-1.43,1.18-2.14,1.52-2.14.11,0,.17.08.17.23s-.49.88-1.46,2.2c-1.13,1.62-1.69,2.52-1.69,2.7.15,0,.83-.87,2.03-2.62,1.2-1.75,1.8-2.73,1.8-2.96l-.11.11c-.19.15-.32.23-.39.23s-.11-.04-.11-.11c0-.56,1.08-2.11,3.24-4.65,2.16-2.53,4.43-4.98,6.82-7.32,2.38-2.35,3.82-3.52,4.31-3.52.08,0,.13.04.17.11.08.08.17.11.28.11.15,0,.41-.06.79-.17.23-.07.36-.11.39-.11s.06.04.06.11c0,.04-.02.11-.06.23-.04.15-.06.26-.06.34s.04.11.11.11c.04,0,.11-.02.23-.06.15-.04.26-.06.34-.06s.11.04.11.11-.02.15-.06.23c0,.3.11.49.34.56.08.04.11.08.11.11l-.06.11c-.04.11-.06.19-.06.23,0,.08.08.11.23.11s.32-.09.51-.28c.23-.23.43-.34.62-.34.11,0,.17.02.17.06l-.11.11c-.19.15-.28.26-.28.34,0,.11.24.24.73.39,1.13.41,2.08,1.29,2.87,2.62.79,1.33,1.18,2.62,1.18,3.86,0-.04.02-.07.06-.11.53-.75.79-1.31.79-1.69,0-.07-.02-.17-.06-.28v-.06c0-.07.04-.11.11-.11.23,0,.44.14.65.42.21.28.31.67.31,1.15,0,.6-.45,1.56-1.35,2.87-.9,1.31-1.5,1.97-1.8,1.97-.23,0-.34-.13-.34-.39.11-.19.32-.32.62-.39.26-.08.43-.19.51-.34l.11-.11s-.11.02-.23.06c-.08.04-.13.06-.17.06-.08,0-.17-.06-.28-.17-.04-.04-.08-.06-.11-.06-.15,0-.36.22-.62.65-.26.43-.39.72-.39.87,0,.04.02.06.06.06h.06s.09-.06.17-.06c.15,0,.23.11.23.34,0,.41-.24.62-.73.62l-.39-.06c-.11,0-.17.06-.17.17l.06.39c0,.49-.54.73-1.63.73h-.34c-.26,0-.39.02-.39.06,0,.15.34.28,1.01.39l.11-.06c.11,0,.17.08.17.23s-.23.36-.68.62c-.41.23-.72.44-.93.65-.21.21-.31.46-.31.76,0,.08.02.15.06.23.04.08.06.13.06.17,0,.11-.08.22-.22.31-.15.09-.28.14-.39.14-.08,0-.11-.04-.11-.11l.06-.17c0-.07-.04-.11-.11-.11-.38,0-.56.28-.56.84v.28c.04.11.06.21.06.28,0,.26-.09.41-.28.45-.15.04-.22.13-.22.28,0,.04.02.09.06.17.04.19.06.34.06.45h-.06s-.02-.06-.06-.06c-.15,0-.53.38-1.13,1.13-.6.75-.9,1.2-.9,1.35.23,0,1.03-.55,2.42-1.66,1.39-1.11,3.25-2.62,5.58-4.53,2.33-1.95,3.55-2.95,3.66-2.99.26-.04.45-.21.56-.51.07-.19.19-.28.34-.28.19,0,.65-.24,1.38-.73.73-.49,1.14-.83,1.21-1.01.04-.11.45-.36,1.24-.73,1.2-.6,1.8-.99,1.8-1.18,0-.11.06-.17.17-.17.04,0,.09.02.17.06.08.04.13.06.17.06s.09-.06.17-.17c.45-.56,1.31-.98,2.59-1.24.08,0,.21-.06.39-.17.94-.64,2.38-1.13,4.34-1.46.38,0,.66.17.84.51.07.15.15.23.23.23.04,0,.07-.02.11-.06.08-.04.15-.06.23-.06.41,0,.97.55,1.66,1.66.69,1.11,1.14,2.19,1.32,3.24.04.15.17.81.39,1.97,1.84,8.37,2.76,14.16,2.76,17.35,0,1.16-.11,1.75-.34,1.75-.64,0-1.1-.59-1.38-1.77-.28-1.18-.57-3.05-.87-5.6-.3-2.37-.59-4.31-.87-5.83-.28-1.52-.73-2.82-1.35-3.89-.62-1.07-1.44-1.61-2.45-1.61-1.24,0-2.7.38-4.39,1.13-1.69.75-3.49,1.65-5.41,2.7-.79.45-1.22.68-1.3.68-.23,0-2.03,1.31-5.41,3.94-3.12,2.44-4.83,3.7-5.13,3.77-.15.08-.68.62-1.58,1.63-1.77,2.03-2.85,3.04-3.27,3.04h-.11s-.08-.06-.11-.06c-.08,0-.11.06-.11.17,0,.23-.56.93-1.69,2.11-1.13,1.18-1.8,1.77-2.03,1.77s-.38.11-.45.34c0,.56-1.39,2.1-4.17,4.62-.75.71-1.13,1.09-1.13,1.13s.04.06.11.06c.19.04.28.11.28.22s-.13.21-.39.28c-.08,0-.17-.02-.28-.06l-.11-.06s-.06.02-.06.06l.06.06c.04.08.06.13.06.17,0,.19-.15.43-.45.73-.3.3-.49.45-.56.45l.06-.17c.08-.15.11-.24.11-.28l-.06-.06c-.08,0-.18.07-.31.2s-.2.27-.2.42v.11c.04.08.06.13.06.17,0,.3-.49,1-1.46,2.08-.64.71-.96,1.13-.96,1.24,0,.15-.15.3-.45.45-.38.23-.56.47-.56.73s-.21.54-.62.82c-.41.28-.79.42-1.13.42-.15,0-.23.09-.23.28,0,.15.09.26.28.34.11.04.17.08.17.11,0,.34-.39.62-1.18.84-.19.04-.28.08-.28.11s.06.09.17.17c.22.15.34.26.34.34,0,.26-.43.53-1.3.79-.79.23-1.18.45-1.18.68,0,.11.04.17.11.17s.21-.07.39-.22c.26-.19.45-.28.56-.28.15,0,.22.08.22.23,0,.49-1.48,2.12-4.45,4.9-1.32,1.24-1.97,1.92-1.97,2.03,0,.08.04.09.11.06,0,.15-.38.51-1.13,1.07.15-.04.34-.09.56-.17.26-.11.43-.17.51-.17l.06.06c0,.15-.24.31-.73.48-.49.17-1.41.25-2.76.25s-2.31-.31-2.87-.93Z"/>
      <path class="cls-1" d="M855.73,268.96c-2.05-.75-4.07-2.18-6.06-4.28-.71-.75-1.37-1.65-1.97-2.7-.6-1.05-.9-1.8-.9-2.25v-.22c.04-.11.06-.21.06-.28,0-.34-.09-.69-.28-1.07-.23-.53-.41-1.2-.56-2.03-.15-.83-.23-2.22-.23-4.17,0-3.72.28-7.09.84-10.11s1.24-6.02,2.03-8.98c.41-1.43.62-2.27.62-2.54,0-.11-.04-.17-.11-.17-.23,0-.56.71-1.01,2.14-.41,1.2-.7,1.8-.85,1.8-.08,0-.15.3-.22.9-.08,1.05-.23,1.67-.45,1.86-.23.15-.34.3-.34.45,0,.49-.38,2.82-1.13,6.98-.04.15-.08.9-.11,2.25-.08,1.8-.15,3.25-.23,4.34-.08,1.09-.17,1.63-.28,1.63s-.17-.68-.17-2.03c0-4.88.54-9.75,1.63-14.59.15-.71.22-1.13.22-1.24-.08,0-.58.54-1.52,1.63-.75.9-1.15,1.35-1.18,1.35l-.06-.06c.23-.34.34-.56.34-.68,0-.15-.06-.23-.17-.23-.19,0-.39.18-.62.54-.23.36-.34.67-.34.93,0,.15.04.22.11.22.04,0,.09-.02.17-.06.19-.08.3-.11.34-.11,0,.15-.3.45-.9.9,0-.04.02-.11.06-.23.04-.15.06-.24.06-.28,0-.08-.04-.11-.11-.11-.26,0-.59.23-.99.7s-.91,1.17-1.55,2.11c-.68.98-1.15,1.61-1.41,1.92-1.95,1.99-3.21,3.42-3.77,4.28-.08.11-.13.17-.17.17-.19,0-.65.33-1.38.99-.73.66-1.1,1.04-1.1,1.15.04,0,.13-.06.28-.17.15-.07.24-.11.28-.11,0,.08-.23.35-.68.82-.45.47-.71.7-.79.7-.04,0-.06-.02-.06-.06s.06-.13.17-.28l.06-.17c-.11,0-.32.14-.62.42-.3.28-.45.52-.45.7l.06.11c0,.23-.13.3-.39.23-.08,0-.21.17-.39.51-.3.56-.53.84-.68.84l-.06-.06.06-.17c.11-.19.17-.3.17-.34,0-.08-.02-.11-.06-.11-.22,0-.98.58-2.25,1.75-2.52,2.33-4.62,3.96-6.31,4.9-.41.23-.62.41-.62.56,0,.04.02.08.06.11.04.04.06.08.06.11,0,.15-.17.32-.51.51-.34.19-.66.28-.96.28-.15,0-.24-.02-.28-.06-.04,0-.08-.02-.11-.06-.04-.04-.08-.06-.11-.06s-.06.02-.06.06l.06.11c.04.08.06.13.06.17,0,.22-.33.42-.99.59s-1.4.25-2.22.25c-1.2,0-2.12-.17-2.76-.51-2.33-1.31-4.14-2.57-5.44-3.77-1.29-1.2-2.22-2.52-2.79-3.94-.56-1.43-.84-3.12-.84-5.07,0-3.12.96-6.72,2.87-10.82,1.92-4.09,4.47-8.08,7.66-11.97,3.19-3.89,6.61-7.11,10.25-9.66,1.88-1.35,2.82-2.14,2.82-2.37l-.06-.06s.11.02.22.06c.15.04.26.06.34.06.3,0,.75-.26,1.35-.79.19-.19.3-.28.34-.28s.06.02.06.06l.06.06.06-.06c1.13-.75,4.43-2.06,9.91-3.94l2.82.17c2.18.08,4.29.68,6.34,1.8,2.05,1.13,3.59,2.53,4.65,4.22.45.71.77,1.07.96,1.07.26,0,.64-.43,1.13-1.3,1.24-2.1,3.01-4.34,5.32-6.7,2.31-2.37,3.82-3.55,4.54-3.55.22,0,.34.13.34.39,0,.19-.19.3-.56.34-.38,0-1.43.87-3.15,2.62-1.73,1.75-3.32,3.6-4.79,5.55-1.46,1.95-2.2,3.38-2.2,4.28,0,.3.08.45.23.45s.96-.86,2.42-2.59c2.22-2.63,4.21-4.8,5.97-6.51,1.76-1.71,3.29-2.56,4.56-2.56.56,0,1.11.16,1.63.48.53.32,1.07.74,1.63,1.27.45.41.73.62.84.62.19,0,.28.08.28.23l-.06.39c0,.34.09.54.28.62.04,0,.08-.02.11-.06.23,0,.45.23.68.68.15.34.28.51.39.51s.17-.06.17-.17c0-.08-.02-.13-.06-.17l-.06-.11c0-.15.08-.23.23-.23.23,0,.34.11.34.34,0,.15-.09.3-.28.45-.23.23-.34.43-.34.62,0,.26.09.39.28.39l.23-.06c.19,0,.32.19.39.56,0,.34-.09.51-.28.51-.04-.04-.09-.06-.17-.06-.11,0-.17.06-.17.17,0,.19.17.28.51.28.41,0,.62-.13.62-.39,0-.07-.02-.21-.06-.39-.04-.19-.06-.3-.06-.34,0-.08.02-.11.06-.11s.18.23.42.68c.24.45.37.73.37.85,0,.04-.02.06-.06.06h-.06c-.08-.04-.13-.06-.17-.06-.11,0-.3.21-.56.62-.3.45-.54.68-.73.68l-.11-.06c-.68,1.09-1.01,1.67-1.01,1.75l.06.23-.17.06s-.13-.02-.28-.06c-.15-.04-.26-.06-.34-.06-.19,0-.28.06-.28.17,0,.08.02.17.06.28.04.08.06.13.06.17,0,.23-.21.49-.62.79-.41.3-.62.54-.62.73,0,.26-.21.49-.62.68-.34.08-.56.24-.68.51-.04.11-.09.17-.17.17-.19,0-.32-.06-.39-.17-.04,0-.06.02-.06.06l.11.17c.26.45.39.79.39,1.01,0,.15-.04.23-.11.23-.19-.11-.28-.23-.28-.34,0-.07.02-.17.06-.28l.06-.11-.06-.06c-.3.19-.45.39-.45.62,0,.04.02.09.06.17v.06c0,.15-.24.23-.73.23-.38,0-.56.06-.56.17v.11s.06.02.06.06c0,.08-.08.13-.22.17-.15,0-.23.06-.23.17,0,.26.15.39.45.39.11,0,.21-.04.28-.11l-.17.17c-.6.71-.9,1.22-.9,1.52,0,.04.02.09.06.17v.06c0,.11-.06.17-.17.17-.04,0-.09-.02-.17-.06-.08-.04-.15-.06-.22-.06-.19,0-.32.08-.39.23-.04.19-.17.28-.39.28s-.43.15-.62.45c-.19.3-.28.54-.28.73,0,.04.02.06.06.06l.23-.06s-.09.17-.28.39c-.49.56-.73.94-.73,1.13l.11.23s-.06.08-.17.11c-.3.08-.45.24-.45.51,0,.23-.15.34-.45.34h-.39c-.19,0-.28.04-.28.11s.02.15.06.23c.04.23.17.34.39.34l.23-.06-.28.34c-.94.98-1.41,1.63-1.41,1.97,0,.38-.09.73-.28,1.07-.19.34-.38.51-.56.51-.15,0-.23-.06-.23-.17,0-.04.02-.09.06-.17l.06-.11c0-.07-.04-.11-.11-.11-.15,0-.31.08-.48.23-.17.15-.25.3-.25.45,0,.11.06.17.17.17.07,0,.15-.02.22-.06h.17c.19,0,.28.04.28.11s-.13.23-.39.45c-.23.23-.34.38-.34.45,0,.04.06.06.17.06.23.04.34.15.34.34,0,.15-.06.23-.17.23-.04,0-.11-.02-.23-.06l-.11-.06c-.08,0-.11.04-.11.11l.06.39c0,.38-.09.56-.28.56-.04,0-.11-.02-.23-.06l-.11-.06s.09.19.28.45c.26.3.51.6.73.9l-1.41-.79c.23.94.51,1.41.84,1.41h.06c0,.11-.08.17-.23.17-.11,0-.24-.06-.39-.17-.15-.07-.26-.11-.34-.11-.45,0-.75.47-.9,1.41,0,.11.06.26.17.45l.06.11-.06.06s-.15-.08-.34-.23c-.19-.15-.3-.23-.34-.23s-.06.06-.06.17c0,.23.04.46.11.7.08.25.19.37.34.37.04,0,.09-.02.17-.06h.11v.06c-.15.26-.36.39-.62.39-.15,0-.27.12-.37.37s-.2.63-.31,1.15c-.23,1.17-.47,1.92-.73,2.25-.26.23-.45.73-.56,1.52-.08.56-.21.86-.39.9-.15.04-.22.09-.22.17h.06c.26.04.39.15.39.34,0,.04-.02.11-.06.23-.04.11-.06.21-.06.28,0,.19.13.39.39.62.11.11.17.19.17.23-.04,0-.13-.02-.28-.06-.19-.08-.32-.11-.39-.11-.11,0-.17.04-.17.11,0,.04.02.13.06.28.04.11.06.19.06.23,0,.08-.02.11-.06.11-.08,0-.13-.02-.17-.06l-.11-.06c-.08,0-.11.09-.11.28v.28c.04.23.06.39.06.51,0,.3-.09.49-.28.56-.11.08-.17.17-.17.28s.07.17.22.17c.08,0,.21-.02.39-.06.08-.04.13-.06.17-.06s.06.02.06.06-.09.17-.28.39c-.53.6-.79,1.01-.79,1.24,0,.08.06.21.17.39.23.41.34.92.34,1.52,0,.34-.08.51-.23.51s-.23-.15-.23-.45v-.17c.04-.11.06-.21.06-.28,0-.19-.06-.28-.17-.28-.15,0-.23.23-.23.68,0,.64.15,1.33.45,2.08.15.41.23.71.23.9,0,.3-.11.45-.34.45l-.51-.11s.09.17.28.39c.34.38.51.64.51.79s-.11.36-.34.62l-.11.11c.19-.11.32-.17.39-.17.19,0,.32.34.39,1.01,0,.26.02.45.06.56h.68c.23,0,.45.23.68.68.19.3.34.45.45.45l.06-.06c.11,0,.17.13.17.39,0,.3-.09.45-.28.45-.15,0-.25-.07-.28-.22-.08-.19-.24-.28-.51-.28-.23,0-.34.04-.34.11l.06.06s.17.15.39.34c.94.75,1.48,1.13,1.63,1.13,0-.04-.02-.09-.06-.17l-.06-.11.06.11c1.35,1.92,2.42,2.87,3.21,2.87.11,0,.17-.04.17-.11,0-.11-.22-.39-.68-.84-.64-.68-.96-1.13-.96-1.35.15,0,.4.17.76.51s1.12,1.11,2.28,2.31c.64,0,1.39-.02,2.25-.06,1.13-.04,2.14-.06,3.04-.06,1.61,0,2.42.09,2.42.28,0,.26-.56.49-1.69.68-1.13.19-2.52.28-4.17.28-2.85,0-5.3-.37-7.35-1.13ZM816.52,255.75c2.01-.88,3.84-1.91,5.49-3.07,2.82-1.99,6.6-5.38,11.35-10.17s8.98-9.42,12.67-13.88c3.7-4.47,5.55-7.23,5.55-8.28,0-.45-.66-.68-1.97-.68-.68,0-2.47.29-5.38.87-2.91.58-4.37.91-4.37.99,0,.15-.75.6-2.25,1.35-3.53,1.8-6.42,3.55-8.67,5.24-1.76,1.31-3.95,3.26-6.56,5.83-2.61,2.57-3.92,4.06-3.92,4.48l-3.83,5.35c0,.08-.26.58-.79,1.52-1.09,1.99-2.02,3.87-2.79,5.63-.77,1.77-1.16,3.36-1.16,4.79,0,.49.1.84.31,1.04.21.21.63.31,1.27.31,1.35,0,3.03-.44,5.04-1.32ZM854.91,263.33c0-.15-.19-.3-.56-.45l-.56-.11c.04.11.11.28.22.51.19.26.39.39.62.39.19,0,.28-.11.28-.34ZM856.4,260.43c-.09-.51-.14-1.21-.14-2.11,0-1.28.11-2.05.34-2.31.15-.19.22-.49.22-.9,0-1.13.24-2.23.73-3.32.15-.3.23-.49.23-.56,0-.11-.13-.17-.39-.17-.11,0-.17-.02-.17-.06.04,0,.09-.06.17-.17.3-.19.45-.36.45-.51,0-.04-.02-.09-.06-.17-.04-.04-.06-.09-.06-.17,0-.26.15-.71.45-1.35.26-.45.39-.75.39-.9s-.06-.22-.17-.22c-.04,0-.11.04-.22.11l-.17.11-.06-.06c0-.08.05-.17.14-.28.09-.11.2-.17.31-.17.08,0,.13.02.17.06h.11c.19,0,.34-.09.45-.28,0-.11-.15-.21-.45-.28-.23,0-.34-.02-.34-.06l.06-.11c.34-.23.51-.49.51-.79s.11-.58.34-.84c.15-.15.22-.3.22-.45,0-.04-.02-.08-.06-.11v-.17c0-.19.19-.36.56-.51.3-.11.45-.24.45-.39,0-.08-.04-.19-.11-.34-.19-.3-.28-.58-.28-.84,0-.34.09-.51.28-.51h.06c.15,0,.26-.06.34-.17.11-.23.32-.47.62-.73.26-.19.39-.34.39-.45,0-.08-.04-.15-.11-.23-.19-.08-.28-.21-.28-.39,0-.04.02-.09.06-.17.04-.04.06-.07.06-.11,0-.19-.23-.47-.68-.84-.34-.34-.51-.58-.51-.73s.13-.23.39-.23c.3,0,.45.02.45.06l-.11.06c-.23.11-.34.23-.34.34,0,.15.08.27.25.37.17.09.37.14.59.14.45,0,.83-.23,1.13-.68.3-.45.45-.98.45-1.58,0-.45-.15-.98-.45-1.58-.04-.15-.08-.26-.11-.34.04.04.09.11.17.23.34.45.64.68.9.68s.46-.11.59-.34c.13-.23.25-.56.37-1.01.15-.53.3-.83.45-.9.26-.11.39-.24.39-.39,0-.04-.02-.07-.06-.11-.04-.04-.06-.07-.06-.11,0-.07.09-.17.28-.28.41-.34.68-.75.79-1.24.11-.56.77-1.5,1.97-2.82.26-.26.39-.41.39-.45.04-.49.43-1.22,1.18-2.2.38-.49.56-.79.56-.9,0-.07-.02-.11-.06-.11s-.21.17-.51.51c-.38.38-.6.56-.68.56-.04,0-.06-.02-.06-.06,0-.15.09-.32.28-.51.15-.19.23-.36.23-.51,0-.07-.04-.19-.11-.34v-.11l.06.06c.04.08.08.11.11.11l.11-.11c.79-.9,1.29-1.35,1.52-1.35.04,0,.06.02.06.06s-.11.21-.34.51c-.38.49-.56.79-.56.9,0,.04.02.06.06.06.15,0,.38-.16.68-.48.3-.32.45-.63.45-.93,0-.04-.02-.09-.06-.17-.04-.11-.06-.19-.06-.23,0-.23.06-.39.2-.51.13-.11.23-.17.31-.17v.06s-.06.13-.17.28l-.11.23v.06c.11,0,.31-.14.59-.42.28-.28.42-.52.42-.7,0-.11-.04-.17-.11-.17-.04,0-.09.04-.17.11-.11.04-.19.06-.22.06-.23,0-.34-.09-.34-.28,0-.26.21-.65.62-1.15.41-.51.73-.76.96-.76.11,0,.17.02.17.06s-.06.09-.17.17c-.19.15-.28.26-.28.34,0,.11.11.21.34.28.11,0,.17-.07.17-.23.04-.15.09-.23.17-.23.04,0,.06.02.06.06h.11v.06c.15,0,.23-.17.23-.51,0-.3-.13-.45-.39-.45l-.45.06c-.08,0-.11-.02-.11-.06,0-.11.3-.41.9-.9.9-.68,1.46-1.22,1.69-1.63.07-.34.21-.51.39-.51.04,0,.07.02.11.06.08.04.15.06.23.06.38,0,.66-.17.84-.51.19-.34.34-.75.45-1.24.11-.38.19-.56.23-.56.3,0,.6.98.9,2.93-.11.11-.28.3-.51.56-2.03,2.4-3.21,3.6-3.55,3.6h-.11l-.06-.06s-.06.02-.06.06.02.08.06.11c.04.08.06.15.06.23,0,.34-.23.8-.68,1.38-.45.58-.81.87-1.07.87-.19,0-.28.06-.28.17l.06.06v.11c0,.38-1.67,2.95-5.01,7.72-2.67,3.79-4,5.82-4,6.08-.04.08-.26.56-.68,1.46-1.88,3.87-2.93,6.22-3.15,7.04,0,.04-.02.13-.06.28-.98,3.19-1.52,4.86-1.63,5.01,0,.04-.02.08-.06.11-.22.53-.36.88-.39,1.07-.34,2.44-.64,4.83-.9,7.15-.08,1.32-.21,1.97-.39,1.97-.11,0-.22-.25-.31-.76Z"/>
      <path class="cls-1" d="M901.63,265.13c-5.43,3.34-10.19,5.01-14.28,5.01-1.43,0-2.57-.18-3.44-.54-.86-.36-1.9-.95-3.1-1.77-1.17-.79-2.14-1.39-2.93-1.8-1.95-1.05-3.43-2.62-4.42-4.7-1-2.08-1.49-4.57-1.49-7.46,0-3.23.58-6.63,1.75-10.2,1.16-3.57,2.54-6.95,4.14-10.14,1.6-3.19,3.67-7.06,6.22-11.6,1.76-3.08,3.02-5.33,3.77-6.76,3.23-6.38,5.28-9.58,6.14-9.58.23,0,.65.39,1.27,1.15.62.77.93,1.27.93,1.49v.17c0,.23.3.91.9,2.06.6,1.15,1.01,1.72,1.24,1.72.15,0,.26.15.34.45.07.38.24.56.51.56h.17c.19,0,.28.13.28.39,0,.19-.08.86-.23,2.03-.04.15-.06.26-.06.34-.34,2.22-1.08,4.59-2.23,7.13-1.15,2.54-3.18,6.28-6.11,11.24-3.3,5.6-5.77,10.12-7.41,13.57-1.63,3.46-2.68,6.13-3.13,8.03-.45,1.9-.68,3.78-.68,5.66,0,1.09.09,1.63.28,1.63.26,0,.39-.88.39-2.65,0-2.03.33-4.12.99-6.28.66-2.16,1.8-4.83,3.44-8,1.63-3.17,4.05-7.41,7.24-12.7,5.41-8.97,8.11-14.81,8.11-17.52v-.68c0-.53.09-.79.28-.79.15,0,.31.19.48.56.17.38.25.85.25,1.41,0,2.22-.62,4.55-1.86,7.01-1.24,2.46-3.6,6.67-7.1,12.65-1.84,3.19-3.31,5.73-4.39,7.6-2.22,3.87-3.85,7.22-4.9,10.05-1.05,2.84-1.58,5.27-1.58,7.29,0,1.46.15,2.2.45,2.2.15,0,1.25-.42,3.29-1.27,2.05-.85,3.11-1.34,3.18-1.49.08-.11.51-.45,1.3-1.01,1.24-.9,2.47-1.83,3.69-2.79,1.22-.96,2.53-2.11,3.92-3.46.64-.64,1.22-1.11,1.75-1.41.22-.11.38-.28.45-.51s.21-.34.39-.34c.08,0,.15.02.23.06l.17.06s.06-.02.06-.06l-.06-.06c-.04-.07-.06-.13-.06-.17,0-.26.32-.68.96-1.24.41-.34.62-.56.62-.68,0-.08.15-.26.45-.56,1.76-1.73,4.06-4.47,6.87-8.22,4.92-6.42,8.45-11.85,10.59-16.28,2.14-4.43,3.21-8.36,3.21-11.77,0-.86-.08-1.3-.22-1.3-.04,0-.19.06-.45.17-.94.34-1.52.51-1.75.51-.19,0-.28-.06-.28-.17,0-.15.36-.43,1.07-.84.64-.38.96-.62.96-.73,0-.04-.09-.09-.28-.17-.56-.3-.84-.54-.84-.73,0-.15.04-.23.11-.23l.06.06s.07.06.11.06c.08,0,.13-.11.17-.34.04-.3.15-.45.34-.45.56,0,1.53.65,2.9,1.94,1.37,1.3,2.34,2.54,2.9,3.75,1.13,2.29,1.69,5.01,1.69,8.17,0,4.54-1.14,9.52-3.41,14.93-2.27,5.41-5.44,10.52-9.49,15.32-4.47,5.33-9.42,9.67-14.84,13.01Z"/>
      <path class="cls-1" d="M968.19,263.72c-5.41,4.09-10.4,6.14-14.98,6.14-1.09,0-1.99-.08-2.7-.25-.71-.17-1.71-.52-2.99-1.04-.86-.34-1.58-.6-2.14-.79-3.42-1.2-6.14-3.16-8.17-5.86-1.62-2.14-2.7-4.44-3.27-6.9-.56-2.46-.92-5.12-1.07-7.97-.04-.38-.06-.64-.06-.79-.15.41-.28.79-.39,1.13l-.06.28c-.08,0-.11-.17-.11-.51,0-1.31.37-3.2,1.1-5.66.73-2.46,1.32-4.25,1.77-5.38.04-.26.17-.45.39-.56.23-.15.34-.38.34-.68,0-.23.04-.38.11-.45.07-.07.19-.15.34-.23.38-.15.66-.38.84-.68.23-.38.41-.56.56-.56h.06l.06.11c0,.15-.08.32-.23.51-1.31,1.62-2.36,3.79-3.13,6.53-.77,2.74-1.15,4.81-1.15,6.2,0,.08.02.11.06.11l.28-.9c1.88-6.5,4.04-11.38,6.48-14.65,2.21-3.04,4.77-6.05,7.66-9.01.64-.64.96-.99.96-1.07-.53.26-2.15,1.78-4.87,4.56-2.72,2.78-4.44,4.92-5.15,6.42-.23.49-.45.73-.68.73-.15,0-.23-.11-.23-.34,0-.07.06-.15.17-.23.3-.11.56-.41.79-.9.6-1.28,2.17-3.29,4.7-6.03,2.54-2.74,4.85-4.9,6.96-6.48,2.93-2.22,6.39-4.18,10.39-5.89,4-1.71,7.26-2.56,9.77-2.56,1.88,0,3.57.53,5.07,1.58,1.5,1.05,2.93,2.76,4.28,5.13.38.64.98,1.2,1.8,1.69.45.23.77.46.96.7.19.24.28.59.28,1.04,0,1.65-1.32,3.78-3.94,6.39-2.63,2.61-6.04,5.25-10.22,7.91-4.19,2.67-8.5,4.88-12.93,6.65-.04,0-.09.02-.17.06-.94.3-1.62.66-2.03,1.07s-1.24,1.54-2.48,3.38c-.08.08-.13.15-.17.22-1.5,2.25-2.73,4.48-3.69,6.68-.96,2.2-1.44,4.52-1.44,6.96,0,2.07.24,3.62.73,4.68.49,1.05,1.48,1.58,2.99,1.58,2.1,0,3.66-.19,4.68-.56.11-.08.19-.11.22-.11.11,0,.17.09.17.28,0,.15.04.23.11.23l.17-.11c.41-.34.83-.51,1.24-.51.68,0,2.55-.81,5.63-2.42h.06c2.7-1.43,4.39-2.44,5.07-3.04.07-.04.15-.06.22-.06s.11.06.11.17-.51.53-1.52,1.24c-1.54,1.05-2.31,1.73-2.31,2.03,0,.04.04.06.11.06.19,0,.51-.19.96-.56.45-.41.77-.62.96-.62.04,0,.09.02.17.06.04.04.08.06.11.06.08,0,.8-.6,2.17-1.8,1.37-1.2,2.06-1.88,2.06-2.03,0-.08-.06-.13-.17-.17-.15-.07-.22-.15-.22-.22,0-.04.04-.09.11-.17.04-.08.11-.11.23-.11.07,0,.19.06.34.17.07.08.15.11.23.11.3,0,.92-.46,1.86-1.38.94-.92,1.41-1.51,1.41-1.77v-.06l-.06-.06c-.15,0-.54.38-1.18,1.13-1.01,1.2-1.71,1.8-2.08,1.8-.11,0-.17-.06-.17-.17,0-.08.54-.62,1.63-1.63,2.21-2.1,3.32-3.27,3.32-3.49,0-.19.09-.28.28-.28.11,0,.17.15.17.45,0,.15-.02.34-.06.56-.04.08-.06.13-.06.17l.06.06.96-2.25c.11,0,.17.06.17.17l-.06.11c-.04.08-.06.13-.06.17,0,.15.13.23.39.23s.41-.07.45-.23v-.28c0-.49.09-.73.28-.73l.11.06c.07.04.13.06.17.06.19,0,.3-.13.34-.39.11-.23.24-.34.39-.34,0,.04.02.06.06.06h.17c.08,0,.13-.07.17-.22.08-.3.21-.54.39-.73.11-.15.28-.38.51-.68.64-.9,1.12-1.53,1.44-1.89.32-.36.59-.54.82-.54.19,0,.28.15.28.45,0,.41-.21.98-.62,1.69-3.83,6.57-8.45,11.91-13.86,16ZM958.95,237.14c1.69-1.13,3.38-2.44,5.07-3.94,2.48-2.06,4.84-4.33,7.1-6.79,2.25-2.46,3.49-4.12,3.72-4.99,0-.3.06-.56.17-.79.04-.04.06-.07.06-.11.04-.04.09-.09.17-.17l.06-.11c.26-.26.39-.45.39-.56,0-.07-.06-.11-.17-.11-.49,0-1.44.5-2.84,1.49-1.41,1-2.98,2.3-4.7,3.92l-6.14,6.14c-.08.11-.17.21-.28.28l-.17.28c-.64.64-1.7,1.9-3.18,3.77-1.48,1.88-2.23,2.99-2.23,3.32,0,.04.02.06.06.06.26,0,1.24-.56,2.93-1.69Z"/>
      <path class="cls-1" d="M987.9,266.99c-2.33-2.06-3.83-3.81-4.51-5.24-.45-.98-.87-2.42-1.27-4.34-.39-1.92-.59-3.45-.59-4.62,0-.53.09-1,.28-1.41.11-.19.17-.36.17-.51,0-.07-.02-.17-.06-.28-.04-.15-.06-.26-.06-.34,0-.23.08-.45.23-.68.07-.11.11-.23.11-.34,0-.08-.02-.13-.06-.17-.11-.11-.17-.32-.17-.62,0-1.09.58-3.62,1.75-7.6.34-1.16.51-1.8.51-1.92,0-.04-.02-.06-.06-.06l-.06-.06c0-1.35,2.2-6.08,6.59-14.19l.62-1.18c0-.07.32-.61.96-1.6.64-.99,1.61-2.53,2.93-4.59,1.84-2.85,3.25-5.05,4.22-6.59.98-1.54,1.46-2.38,1.46-2.53,0-.11.04-.21.11-.28.45-.45,1.03-1.26,1.75-2.42.19-.56,3.21-4.98,9.07-13.24,4.77-6.76,8.17-11.37,10.2-13.83,2.03-2.46,3.53-3.69,4.51-3.69.53,0,.96.28,1.3.85.34.56.71,1.39,1.13,2.48.19.53.34.9.45,1.13,0,.04.02.09.06.17.38.94.65,1.66.82,2.17.17.51.25,1.04.25,1.61,0,1.39-.64,3.16-1.92,5.32-1.28,2.16-4.15,6.64-8.62,13.43-5.22,7.81-10.05,15.21-14.48,22.19-.71,1.13-1.2,1.9-1.46,2.31-4.36,6.68-7.61,11.86-9.77,15.52-2.16,3.66-3.8,7.1-4.93,10.31-1.13,3.21-1.69,6.41-1.69,9.6,0,.79.05,1.38.14,1.77.09.39.2.59.31.59.07,0,.11-.09.11-.28,0-.15-.02-.45-.06-.9-.11-.98-.17-1.75-.17-2.31,0-3.72,1.21-8.05,3.63-13.01,2.42-4.96,6.79-12.07,13.1-21.35,1.76-2.67,3.24-4.91,4.42-6.73,1.18-1.82,1.77-2.79,1.77-2.9v-.06c0-.23.13-.36.39-.39.26-.11.39-.24.39-.39,0-.04-.02-.07-.06-.11-.04-.04-.06-.07-.06-.11s.3-.38.9-1.01c.6-.64.9-.98.9-1.01s-.02-.07-.06-.11c-.04-.04-.06-.07-.06-.11,0-.11.11-.24.34-.39.26-.15.39-.28.39-.39v-.17c0-.3.39-.86,1.18-1.69.26-.26.39-.41.39-.45l-.34.06.22-.23c.34-.3.51-.51.51-.62,0-.04-.02-.07-.06-.11-.04-.04-.06-.08-.06-.11,0-.07.11-.19.34-.34.3-.15.45-.28.45-.39l-.11-.23c0-.07.13-.19.39-.34.26-.15.39-.28.39-.39,0-.04-.02-.06-.06-.06v-.11c0-.11.11-.24.34-.39.26-.15.39-.28.39-.39,0-.04-.02-.09-.06-.17-.04-.04-.06-.07-.06-.11,0-.07.04-.13.11-.17.3-.15.56-.49.79-1.01.22-.49.47-.83.73-1.01.15-.11.23-.26.23-.45,0-.26.08-.39.23-.39.04,0,.09.02.17.06.08.04.13.06.17.06s.06-.02.06-.06v-.06c-.04-.15-.06-.28-.06-.39,0-.41.09-.62.28-.62.04,0,.08.02.11.06.07.04.13.06.17.06.15,0,.27-.06.37-.17.09-.11.14-.21.14-.28l-.06-.06s-.11.04-.22.11c-.11.08-.19.11-.23.11-.08,0-.11-.04-.11-.11,0-.11.06-.23.17-.37.11-.13.23-.2.34-.2h.11c.15,0,.23-.13.23-.39v-.11c0-.3.26-.56.79-.79.23-.07.34-.13.34-.17s-.02-.06-.06-.06l-.23.11c-.15.08-.25.11-.28.11s-.06-.04-.06-.11c.11-.34.34-.58.68-.73.23-.07.34-.19.34-.34v-.23c0-.56.32-.92.96-1.07.34,0,.51.15.51.45s-.39,1.03-1.18,2.2c-5.93,8.6-10.21,15.08-12.84,19.43-.41.68-.66,1.01-.73,1.01-.19,0-.38.28-.56.84-.19.41-.32.62-.39.62h-.11l-.06-.06c-.11,0-.19.19-.23.56-.08.45-.19.68-.34.68-.19,0-.28.11-.28.34,0,.34-1.13,2.15-3.38,5.44-2.25,3.29-3.49,4.93-3.72,4.93l-.11-.06s-.06.02-.06.06l.11.28c0,.45-1.52,2.97-4.56,7.55-2.1,3.23-3.85,6.82-5.24,10.76-1.39,3.94-2.08,7.19-2.08,9.75,0,1.39.23,2.39.68,2.99.45.6,1.24.9,2.37.9,1.43,0,3.03-.42,4.82-1.27,1.78-.84,3.39-1.77,4.82-2.79,1.43-1.01,2.14-1.61,2.14-1.8v-.17c0-.11.06-.17.17-.17.56,0,2.43-1.73,5.6-5.18,3.17-3.46,6.32-7.14,9.43-11.07,3.12-3.92,4.88-6.47,5.29-7.63.19-.41.43-.62.73-.62.34,0,.51.3.51.9s-.25,1.33-.76,2.2c-.51.86-1.21,1.93-2.11,3.21-1.17,1.62-1.75,2.59-1.75,2.93,0,.15-.26.54-.79,1.18-.53.71-.79,1.15-.79,1.3v.06c0,.15-.28.56-.84,1.24-.68.83-1.01,1.35-1.01,1.58v.17c0,.08-.06.13-.17.17-.26.11-.43.34-.51.68-.04.38-.17.56-.39.56-.08,0-.15-.04-.23-.11-.08-.04-.13-.06-.17-.06h-.06c0,.15.32.45.96.9,0-.04-.04-.13-.11-.28-.08-.15-.11-.24-.11-.28v-.06c.08,0,.17.05.28.14.11.09.17.18.17.25,0,.15-.14.39-.42.73-.28.34-.44.51-.48.51v-.06s.04-.15.11-.34c.08-.19.11-.32.11-.39s-.04-.11-.11-.11c-.19,0-.32.26-.39.79-.04.26-.08.39-.11.39l-.11-.17c-.15-.19-.26-.28-.34-.28-.19,0-.41.24-.68.73v.06l.11-.06c.11-.08.21-.11.28-.11.11,0,.21.04.28.11v.06c0,.3-.31.84-.93,1.61-.62.77-1.04,1.16-1.27,1.16h-.11v-.06s-.06.04-.06.11c-.19.56-.84,1.48-1.97,2.76-2.7,3.23-5.52,5.77-8.45,7.63-2.93,1.86-5.58,2.79-7.94,2.79-2.1,0-4.32-1.03-6.65-3.1Z"/>
    </g>
  </g>
</svg>